<svg width="32" height="32" viewBox="0 0 32 32" fill="none" xmlns="http://www.w3.org/2000/svg">
<path d="M22.6667 2.66699H9.33335C5.65146 2.66699 2.66669 5.65176 2.66669 9.33366V22.667C2.66669 26.3489 5.65146 29.3337 9.33335 29.3337H22.6667C26.3486 29.3337 29.3334 26.3489 29.3334 22.667V9.33366C29.3334 5.65176 26.3486 2.66699 22.6667 2.66699Z" stroke="#F2EEE5" stroke-width="2.66667" stroke-linecap="round" stroke-linejoin="round"/>
<path d="M21.3333 15.1604C21.4978 16.2701 21.3083 17.4034 20.7916 18.3991C20.275 19.3948 19.4575 20.2023 18.4555 20.7066C17.4534 21.211 16.3179 21.3865 15.2103 21.2083C14.1028 21.0301 13.0796 20.5072 12.2864 19.714C11.4932 18.9207 10.9703 17.8976 10.792 16.79C10.6138 15.6825 10.7894 14.5469 11.2937 13.5449C11.7981 12.5429 12.6055 11.7254 13.6013 11.2087C14.597 10.6921 15.7303 10.5025 16.84 10.6671C17.9719 10.8349 19.0198 11.3624 19.8289 12.1715C20.638 12.9806 21.1654 14.0285 21.3333 15.1604Z" stroke="#F2EEE5" stroke-width="2.66667" stroke-linecap="round" stroke-linejoin="round"/>
<path d="M23.3333 8.66699H23.3466" stroke="#F2EEE5" stroke-width="2.66667" stroke-linecap="round" stroke-linejoin="round"/>
</svg>
